<svg xmlns="http://www.w3.org/2000/svg" width="1080" height="1080" viewBox="0 0 1080 1080">
  <defs>
    <style>
      .cls-1 {
        fill: #c8ef26;
      }

      .cls-1, .cls-2 {
        fill-rule: evenodd;
      }

      .cls-2 {
        fill: #fff;
      }
    </style>
  </defs>
  <path id="Forma_1" data-name="Forma 1" class="cls-1" d="M511,217l-20,67-95,45s-11.894,5.669-16,18-6,18-6,18H572L531,488s-3.01,16.949-40,36-93,49-93,49H316s10.369-20.118,40-36,115-59,115-59,13.769-4.289,20-22,13-37,13-37H326s-17.9-1.3-13-19,28-91,28-91-0.049-9.761,30-25S511,217,511,217Z"/>
  <path id="Forma_2" data-name="Forma 2" class="cls-2" d="M826,381L705,431s-6.776-31.719,31-46,53-21,53-21l-34-78s0.845-4.428-22-17-64-35-64-35l-94,65-60-82,62-1a157.447,157.447,0,0,0,41-4c22.767-5.2,46-11,46-11s3.531-1.989,14,4,86,47,86,47,10.414,6.558,22,33S826,381,826,381Z"/>
  <path id="Forma_3" data-name="Forma 3" class="cls-2" d="M922,368"/>
  <path id="Forma_4" data-name="Forma 4" class="cls-2" d="M693,357L633,547H481l-46,25,226,1,28-138Z"/>
  <path id="Forma_5" data-name="Forma 5" class="cls-2" d="M762,512"/>
  <path id="Retângulo_1" data-name="Retângulo 1" class="cls-1" d="M123,816h94v11H123V816Zm0,0h94v11H123V816Z"/>
  <path id="Retângulo_1-2" data-name="Retângulo 1" class="cls-1" d="M877,816h94v11H877V816Zm0,0h94v11H877V816Z"/>
  <path id="Shirt" class="cls-2" d="M109.423,700.768q4.966,6.766,14.03,7.477h50.7a5.519,5.519,0,0,1,4.617,2.136,6.3,6.3,0,0,1,1.126,5.188l-3.535,20.04a8.281,8.281,0,0,1-2.911,4.985,8.025,8.025,0,0,1-5.335,2.034H98.326l-4.449,25.228h80.668a27.339,27.339,0,0,0,18.054-6.917,27.832,27.832,0,0,0,9.928-16.785l7.14-40.487q1.614-9.155-3.575-15.92a19.371,19.371,0,0,0-14.335-7.578l-50.427-.2a5.743,5.743,0,0,1-4.678-2.085,5.919,5.919,0,0,1-1.2-5.035l2.6-14.751a8.377,8.377,0,0,1,2.979-5.035,8.191,8.191,0,0,1,5.417-2.085h67.628l4.448-25.228H139.992q-9.666,0-17.81,6.968A28.117,28.117,0,0,0,112.3,649.55l-6.207,35.2Q104.457,694,109.423,700.768Zm140.04,67.088,13.813-78.328a8.3,8.3,0,0,1,3.06-4.985,8.429,8.429,0,0,1,5.5-2.136h23.536a5.48,5.48,0,0,1,4.594,2.136,6.081,6.081,0,0,1,1.151,4.985l-13.813,78.328h27.263l13.812-78.328q2.079-11.8-4.737-20.091t-18.495-8.291H284.733a21.56,21.56,0,0,0-10.916,3.154l-6.793,3.967,7.534-42.725H247.3L222.2,767.856h27.262Zm113.066,0,18.816-106.71H354.083l-18.816,106.71h27.262ZM383.874,646.8l3.749-21.261H360.361l-3.75,21.261h27.263Zm26.718,121.053,13.776-78.125a8.786,8.786,0,0,1,2.991-5.137,8.008,8.008,0,0,1,5.422-2.187H457.6l3.748-21.261H445.684a21.612,21.612,0,0,0-10.932,3.154l-6.6,3.967,1.255-7.121H402.146L383.33,767.856h27.262Zm70.419-85.246-10.225,57.984q-2.082,11.8,4.808,20.04t18.791,8.239h16.479l3.75-21.26H503.871a5.714,5.714,0,0,1-4.654-2.035,5.842,5.842,0,0,1-1.169-4.984l10.225-57.984h22.583l3.75-21.26H512.023l4.43-25.126H489.19l-4.429,25.126H470.519l-3.749,21.26h14.241Z"/>
  <path id="Store" class="cls-1" d="M569.423,699.768q4.966,6.766,14.03,7.477h50.7a5.519,5.519,0,0,1,4.617,2.136,6.3,6.3,0,0,1,1.126,5.188l-3.535,20.04a8.281,8.281,0,0,1-2.911,4.985,8.025,8.025,0,0,1-5.335,2.034H558.326l-4.449,25.228h80.668a27.339,27.339,0,0,0,18.054-6.917,27.832,27.832,0,0,0,9.928-16.785l7.14-40.487q1.614-9.155-3.575-15.92a19.371,19.371,0,0,0-14.335-7.578l-50.427-.2a5.743,5.743,0,0,1-4.678-2.085,5.919,5.919,0,0,1-1.2-5.035l2.6-14.751a8.377,8.377,0,0,1,2.979-5.035,8.191,8.191,0,0,1,5.417-2.085h67.628l4.448-25.228H599.992q-9.666,0-17.81,6.968A28.117,28.117,0,0,0,572.3,648.55l-6.207,35.2Q564.457,693,569.423,699.768ZM706.184,681.61l-10.225,57.984q-2.08,11.8,4.809,20.04t18.79,8.239h16.48l3.749-21.26H729.044a5.715,5.715,0,0,1-4.654-2.035,5.842,5.842,0,0,1-1.168-4.984l10.225-57.984H756.03l3.749-21.26H737.2l4.43-25.126H714.364l-4.43,25.126H695.692l-3.749,21.26h14.241Zm60.045,76.9q6.775,8.342,18.592,8.341h35.743q11.814,0,21.534-8.341a33.837,33.837,0,0,0,11.818-20.244l8.736-49.54q2.1-11.9-4.68-20.243t-18.592-8.342H803.637q-11.817,0-21.534,8.342a33.833,33.833,0,0,0-11.818,20.243l-8.736,49.54Q759.452,750.174,766.229,758.515Zm31.314-69.76a8.748,8.748,0,0,1,3.04-5.153,8.045,8.045,0,0,1,5.358-2.195H829.58a5.539,5.539,0,0,1,4.635,2.195,6.283,6.283,0,0,1,1.17,5.153l-8.763,49.7a8.426,8.426,0,0,1-2.971,5.052,8.108,8.108,0,0,1-5.39,2.091H794.623a5.726,5.726,0,0,1-4.6-2.091,5.875,5.875,0,0,1-1.24-5.052Zm98.277,78.1L909.6,688.731a8.786,8.786,0,0,1,2.991-5.137,8.008,8.008,0,0,1,5.422-2.187H942.83l3.748-21.261H930.912A21.612,21.612,0,0,0,919.98,663.3l-6.6,3.967,1.256-7.121H887.374l-18.816,106.71H895.82Zm55.162-8.341q6.8,8.342,18.676,8.341h59.072l3.75-21.261H979.349a5.662,5.662,0,0,1-4.649-2.1,6.027,6.027,0,0,1-1.183-5.081l2.732-15.5h61.041l0.47-.407,6.8-38.554q1.74-9.865-3.93-16.836t-15.52-6.968H988.472a32.529,32.529,0,0,0-21.608,8.291,33.46,33.46,0,0,0-11.813,20.091l-8.772,49.743Q944.18,750.174,950.982,758.515Zm31.743-72.327a5.635,5.635,0,0,1,1.974-3.408,5.489,5.489,0,0,1,3.651-1.373h27.36a3.63,3.63,0,0,1,3.02,1.373,4.11,4.11,0,0,1,.72,3.408l-3.09,17.5-0.26.305H979.586Z"/>
  <path id="Camisas" class="cls-2" d="M257.118,826.029a6.555,6.555,0,0,1-1.847,4.11,6.019,6.019,0,0,1-4,1.18,5.209,5.209,0,0,1-4.509-2.281,10.454,10.454,0,0,1-1.611-6.141v-2.3a10.169,10.169,0,0,1,1.7-6.3,5.592,5.592,0,0,1,4.7-2.216,5.343,5.343,0,0,1,3.8,1.274,6.8,6.8,0,0,1,1.766,4.114h3.141a8.825,8.825,0,0,0-2.653-5.835,8.563,8.563,0,0,0-6.054-2.108,9.3,9.3,0,0,0-5.013,1.343,8.8,8.8,0,0,0-3.345,3.849,13.5,13.5,0,0,0-1.18,5.811v2.278a12.11,12.11,0,0,0,2.531,8.057,8.35,8.35,0,0,0,6.73,3.011,9.093,9.093,0,0,0,6.209-2.043,8.718,8.718,0,0,0,2.775-5.8h-3.141Zm39.421,7.519h3.206l-9.066-23.7h-2.734l-9.05,23.7h3.223l2.23-6.2h9.928Zm-7.227-19.84,4.036,11.084h-8.056Zm30.29-3.858v23.7h3.125V824.32l-0.31-9.912,7.764,19.14h2.393l7.78-19.189-0.293,9.961v9.228h3.125v-23.7h-4.053l-7.748,19.336-7.747-19.336H319.6Zm49.121,0H365.6v23.7h3.125v-23.7Zm33.789,15.015a3.218,3.218,0,0,1,1.22,2.694,3.275,3.275,0,0,1-1.318,2.75,6.14,6.14,0,0,1-3.792,1.01,6.682,6.682,0,0,1-4.24-1.246,4.081,4.081,0,0,1-1.587-3.393h-3.141a6.256,6.256,0,0,0,1.147,3.7,7.669,7.669,0,0,0,3.264,2.563,11.133,11.133,0,0,0,4.557.936,9.577,9.577,0,0,0,6.006-1.734,5.536,5.536,0,0,0,2.246-4.614,5.963,5.963,0,0,0-.806-3.141,7.02,7.02,0,0,0-2.474-2.336,19.406,19.406,0,0,0-4.622-1.832,12.047,12.047,0,0,1-4.183-1.835,3.055,3.055,0,0,1-1.229-2.454,3.4,3.4,0,0,1,1.294-2.828,5.689,5.689,0,0,1,3.605-1.02,5.558,5.558,0,0,1,3.857,1.233,4.334,4.334,0,0,1,1.368,3.39h3.141a6.66,6.66,0,0,0-1.05-3.63,7.154,7.154,0,0,0-2.962-2.6,9.713,9.713,0,0,0-4.354-.944,8.894,8.894,0,0,0-5.819,1.831,5.732,5.732,0,0,0-2.238,4.63,5.429,5.429,0,0,0,1.831,4.159,14.69,14.69,0,0,0,5.852,2.84A14.088,14.088,0,0,1,402.512,824.865Zm40.381,8.683H446.1l-9.066-23.7H434.3l-9.05,23.7h3.223l2.23-6.2h9.928Zm-7.227-19.84,4.037,11.084h-8.057Zm41.7,11.157a3.218,3.218,0,0,1,1.221,2.694,3.275,3.275,0,0,1-1.318,2.75,6.144,6.144,0,0,1-3.793,1.01,6.684,6.684,0,0,1-4.24-1.246,4.081,4.081,0,0,1-1.587-3.393h-3.141a6.257,6.257,0,0,0,1.148,3.7,7.666,7.666,0,0,0,3.263,2.563,11.136,11.136,0,0,0,4.557.936,9.573,9.573,0,0,0,6.006-1.734,5.533,5.533,0,0,0,2.246-4.614,5.963,5.963,0,0,0-.8-3.141,7.029,7.029,0,0,0-2.474-2.336,19.416,19.416,0,0,0-4.623-1.832,12.056,12.056,0,0,1-4.183-1.835,3.058,3.058,0,0,1-1.229-2.454,3.4,3.4,0,0,1,1.294-2.828,5.692,5.692,0,0,1,3.606-1.02,5.56,5.56,0,0,1,3.857,1.233,4.336,4.336,0,0,1,1.367,3.39h3.141a6.667,6.667,0,0,0-1.049-3.63,7.157,7.157,0,0,0-2.963-2.6,9.711,9.711,0,0,0-4.353-.944,8.892,8.892,0,0,0-5.819,1.831,5.732,5.732,0,0,0-2.238,4.63,5.425,5.425,0,0,0,1.831,4.159,14.691,14.691,0,0,0,5.851,2.84A14.077,14.077,0,0,1,477.365,824.865Z"/>
  <path id="Esportivas" class="cls-2" d="M527.223,820.039h-10.27v-7.633H528.72V809.85H513.828v23.7h15.055v-2.555h-11.93v-8.4h10.27v-2.556Zm33.626,4.826a3.218,3.218,0,0,1,1.221,2.694,3.276,3.276,0,0,1-1.319,2.75,6.14,6.14,0,0,1-3.792,1.01,6.682,6.682,0,0,1-4.24-1.246,4.081,4.081,0,0,1-1.587-3.393h-3.141a6.256,6.256,0,0,0,1.147,3.7,7.669,7.669,0,0,0,3.264,2.563,11.133,11.133,0,0,0,4.557.936,9.573,9.573,0,0,0,6.006-1.734,5.536,5.536,0,0,0,2.246-4.614,5.963,5.963,0,0,0-.806-3.141,7.011,7.011,0,0,0-2.474-2.336,19.406,19.406,0,0,0-4.622-1.832,12.056,12.056,0,0,1-4.183-1.835,3.058,3.058,0,0,1-1.229-2.454,3.4,3.4,0,0,1,1.294-2.828,5.689,5.689,0,0,1,3.605-1.02,5.563,5.563,0,0,1,3.858,1.233,4.336,4.336,0,0,1,1.367,3.39h3.141a6.66,6.66,0,0,0-1.05-3.63,7.148,7.148,0,0,0-2.962-2.6,9.713,9.713,0,0,0-4.354-.944,8.889,8.889,0,0,0-5.818,1.831,5.732,5.732,0,0,0-2.238,4.63,5.425,5.425,0,0,0,1.831,4.159,14.684,14.684,0,0,0,5.851,2.84A14.088,14.088,0,0,1,560.849,824.865Zm33.74-.594a9.172,9.172,0,0,0,6.177-1.864,6.64,6.64,0,0,0,2.157-5.314,6.733,6.733,0,0,0-2.206-5.257,8.779,8.779,0,0,0-6.1-1.986h-8.74v23.7h3.125v-9.277h5.582Zm-5.582-11.865H594.8a5.262,5.262,0,0,1,3.662,1.32,4.467,4.467,0,0,1,1.335,3.392,4.322,4.322,0,0,1-1.335,3.416,5.614,5.614,0,0,1-3.841,1.182h-5.615v-9.31Zm52.8,8.561a14.733,14.733,0,0,0-1.172-6.079,8.856,8.856,0,0,0-3.345-3.988,9.183,9.183,0,0,0-5.021-1.375,8.789,8.789,0,0,0-8.333,5.4,14.484,14.484,0,0,0-1.188,6.038v1.709a14.048,14.048,0,0,0,1.229,5.9,9.4,9.4,0,0,0,13.338,3.931,8.879,8.879,0,0,0,3.32-3.964,14.661,14.661,0,0,0,1.172-6.079v-1.5Zm-3.109,1.725a10.572,10.572,0,0,1-1.709,6.323,6.016,6.016,0,0,1-9.415-.13,10.638,10.638,0,0,1-1.717-6.421v-1.741a10.4,10.4,0,0,1,1.749-6.258,5.523,5.523,0,0,1,4.663-2.255,5.585,5.585,0,0,1,4.737,2.255,10.627,10.627,0,0,1,1.692,6.469v1.758ZM677,833.548h3.353v-0.2l-5.567-10.059a7.137,7.137,0,0,0,3.329-2.457,6.384,6.384,0,0,0,1.2-3.858,6.559,6.559,0,0,0-2.157-5.306,9.285,9.285,0,0,0-6.16-1.823h-7.845v23.7h3.141v-9.586h5.567Zm-10.71-21.142h4.785a5.549,5.549,0,0,1,3.785,1.19,4.3,4.3,0,0,1,1.31,3.375,4.081,4.081,0,0,1-1.376,3.229,5.416,5.416,0,0,1-3.7,1.206h-4.8v-9Zm49.138-2.556H697.1v2.556h7.6v21.142h3.108V812.406h7.618V809.85Zm23.535,0h-3.125v23.7h3.125v-23.7Zm23.486,0h-3.4l8.773,23.7h2.767l8.789-23.7h-3.418L769.182,829.4Zm50.9,23.7h3.207l-9.066-23.7h-2.735l-9.049,23.7h3.223l2.229-6.2h9.929Zm-7.226-19.84,4.036,11.084h-8.057Zm41.7,11.157a3.218,3.218,0,0,1,1.221,2.694,3.276,3.276,0,0,1-1.319,2.75,6.14,6.14,0,0,1-3.792,1.01,6.682,6.682,0,0,1-4.24-1.246,4.081,4.081,0,0,1-1.587-3.393h-3.141a6.256,6.256,0,0,0,1.147,3.7,7.669,7.669,0,0,0,3.264,2.563,11.133,11.133,0,0,0,4.557.936,9.577,9.577,0,0,0,6.006-1.734,5.536,5.536,0,0,0,2.246-4.614,5.963,5.963,0,0,0-.806-3.141,7.02,7.02,0,0,0-2.474-2.336,19.406,19.406,0,0,0-4.622-1.832,12.047,12.047,0,0,1-4.183-1.835,3.055,3.055,0,0,1-1.229-2.454,3.4,3.4,0,0,1,1.294-2.828,5.689,5.689,0,0,1,3.605-1.02,5.563,5.563,0,0,1,3.858,1.233,4.336,4.336,0,0,1,1.367,3.39h3.141a6.66,6.66,0,0,0-1.05-3.63,7.154,7.154,0,0,0-2.962-2.6,9.713,9.713,0,0,0-4.354-.944,8.894,8.894,0,0,0-5.819,1.831,5.732,5.732,0,0,0-2.238,4.63,5.426,5.426,0,0,0,1.832,4.159,14.684,14.684,0,0,0,5.851,2.84A14.088,14.088,0,0,1,847.812,824.865Z"/>
</svg>
